<?xml version="1.0" encoding="UTF-8" standalone="no"?>
<!DOCTYPE svg PUBLIC "-//W3C//DTD SVG 1.1//EN"
 "http://www.w3.org/Graphics/SVG/1.1/DTD/svg11.dtd">
<!-- Generated by graphviz version 5.0.0 (20220707.1540)
 -->
<!-- Title: dependencies Pages: 1 -->
<svg width="1794pt" height="247pt"
 viewBox="0.00 0.00 1794.00 246.80" xmlns="http://www.w3.org/2000/svg" xmlns:xlink="http://www.w3.org/1999/xlink">
<g id="graph0" class="graph" transform="scale(1 1) rotate(0) translate(4 242.8)">
<title>dependencies</title>
<polygon fill="white" stroke="transparent" points="-4,4 -4,-242.8 1790,-242.8 1790,4 -4,4"/>
<text text-anchor="middle" x="893" y="-8.2" font-family="sans-serif" font-size="14.00">dependencies</text>
<g id="clust1" class="cluster">
<title>cluster_AppModule</title>
<polygon fill="none" stroke="black" stroke-dasharray="1,5" points="8,-32.8 8,-230.8 1778,-230.8 1778,-32.8 8,-32.8"/>
</g>
<g id="clust2" class="cluster">
<title>cluster_AppModule_declarations</title>
<polygon fill="none" stroke="black" points="348,-40.8 348,-92.8 1770,-92.8 1770,-40.8 348,-40.8"/>
</g>
<g id="clust13" class="cluster">
<title>cluster_AppModule_imports</title>
<polygon fill="none" stroke="black" points="196,-40.8 196,-92.8 340,-92.8 340,-40.8 196,-40.8"/>
</g>
<g id="clust15" class="cluster">
<title>cluster_AppModule_bootstrap</title>
<polygon fill="none" stroke="black" points="846,-170.8 846,-222.8 970,-222.8 970,-170.8 846,-170.8"/>
</g>
<g id="clust16" class="cluster">
<title>cluster_AppModule_providers</title>
<polygon fill="none" stroke="black" points="16,-40.8 16,-92.8 188,-92.8 188,-40.8 16,-40.8"/>
</g>
<!-- AboutMeComponent -->
<g id="node1" class="node">
<title>AboutMeComponent</title>
<polygon fill="#ffffb3" stroke="black" points="1762.49,-84.8 1627.51,-84.8 1627.51,-48.8 1762.49,-48.8 1762.49,-84.8"/>
<text text-anchor="middle" x="1695" y="-62.6" font-family="Times,serif" font-size="14.00">AboutMeComponent</text>
</g>
<!-- AppModule -->
<g id="node11" class="node">
<title>AppModule</title>
<polygon fill="#8dd3c7" stroke="black" points="949.66,-149.8 946.66,-153.8 925.66,-153.8 922.66,-149.8 866.34,-149.8 866.34,-113.8 949.66,-113.8 949.66,-149.8"/>
<text text-anchor="middle" x="908" y="-127.6" font-family="Times,serif" font-size="14.00">AppModule</text>
</g>
<!-- AboutMeComponent&#45;&gt;AppModule -->
<g id="edge1" class="edge">
<title>AboutMeComponent&#45;&gt;AppModule</title>
<path fill="none" stroke="black" d="M1695,-85.05C1695,-107.82 1695,-143.8 1695,-143.8 1695,-143.8 959.76,-143.8 959.76,-143.8"/>
<polygon fill="black" stroke="black" points="959.76,-140.3 949.76,-143.8 959.76,-147.3 959.76,-140.3"/>
</g>
<!-- AppComponent -->
<g id="node2" class="node">
<title>AppComponent</title>
<polygon fill="#ffffb3" stroke="black" points="1609.94,-84.8 1504.06,-84.8 1504.06,-48.8 1609.94,-48.8 1609.94,-84.8"/>
<text text-anchor="middle" x="1557" y="-62.6" font-family="Times,serif" font-size="14.00">AppComponent</text>
</g>
<!-- AppComponent&#45;&gt;AppModule -->
<g id="edge2" class="edge">
<title>AppComponent&#45;&gt;AppModule</title>
<path fill="none" stroke="black" d="M1557,-85.08C1557,-106.12 1557,-137.8 1557,-137.8 1557,-137.8 960.08,-137.8 960.08,-137.8"/>
<polygon fill="black" stroke="black" points="960.08,-134.3 950.08,-137.8 960.08,-141.3 960.08,-134.3"/>
</g>
<!-- ContactUsComponent -->
<g id="node3" class="node">
<title>ContactUsComponent</title>
<polygon fill="#ffffb3" stroke="black" points="1486.44,-84.8 1345.56,-84.8 1345.56,-48.8 1486.44,-48.8 1486.44,-84.8"/>
<text text-anchor="middle" x="1416" y="-62.6" font-family="Times,serif" font-size="14.00">ContactUsComponent</text>
</g>
<!-- ContactUsComponent&#45;&gt;AppModule -->
<g id="edge3" class="edge">
<title>ContactUsComponent&#45;&gt;AppModule</title>
<path fill="none" stroke="black" d="M1416,-84.91C1416,-104.14 1416,-131.8 1416,-131.8 1416,-131.8 960,-131.8 960,-131.8"/>
<polygon fill="black" stroke="black" points="960,-128.3 950,-131.8 960,-135.3 960,-128.3"/>
</g>
<!-- FirstPageComponent -->
<g id="node4" class="node">
<title>FirstPageComponent</title>
<polygon fill="#ffffb3" stroke="black" points="1328.22,-84.8 1193.78,-84.8 1193.78,-48.8 1328.22,-48.8 1328.22,-84.8"/>
<text text-anchor="middle" x="1261" y="-62.6" font-family="Times,serif" font-size="14.00">FirstPageComponent</text>
</g>
<!-- FirstPageComponent&#45;&gt;AppModule -->
<g id="edge4" class="edge">
<title>FirstPageComponent&#45;&gt;AppModule</title>
<path fill="none" stroke="black" d="M1261,-84.82C1261,-102.17 1261,-125.8 1261,-125.8 1261,-125.8 959.88,-125.8 959.88,-125.8"/>
<polygon fill="black" stroke="black" points="959.88,-122.3 949.88,-125.8 959.88,-129.3 959.88,-122.3"/>
</g>
<!-- LoginComponent -->
<g id="node5" class="node">
<title>LoginComponent</title>
<polygon fill="#ffffb3" stroke="black" points="1176.27,-84.8 1061.73,-84.8 1061.73,-48.8 1176.27,-48.8 1176.27,-84.8"/>
<text text-anchor="middle" x="1119" y="-62.6" font-family="Times,serif" font-size="14.00">LoginComponent</text>
</g>
<!-- LoginComponent&#45;&gt;AppModule -->
<g id="edge5" class="edge">
<title>LoginComponent&#45;&gt;AppModule</title>
<path fill="none" stroke="black" d="M1119,-85.04C1119,-100.37 1119,-119.8 1119,-119.8 1119,-119.8 959.69,-119.8 959.69,-119.8"/>
<polygon fill="black" stroke="black" points="959.69,-116.3 949.69,-119.8 959.69,-123.3 959.69,-116.3"/>
</g>
<!-- NavbarComponent -->
<g id="node6" class="node">
<title>NavbarComponent</title>
<polygon fill="#ffffb3" stroke="black" points="1043.03,-84.8 920.97,-84.8 920.97,-48.8 1043.03,-48.8 1043.03,-84.8"/>
<text text-anchor="middle" x="982" y="-62.6" font-family="Times,serif" font-size="14.00">NavbarComponent</text>
</g>
<!-- NavbarComponent&#45;&gt;AppModule -->
<g id="edge6" class="edge">
<title>NavbarComponent&#45;&gt;AppModule</title>
<path fill="none" stroke="black" d="M935.28,-84.91C935.28,-84.91 935.28,-103.79 935.28,-103.79"/>
<polygon fill="black" stroke="black" points="931.78,-103.79 935.28,-113.79 938.78,-103.79 931.78,-103.79"/>
</g>
<!-- NotFoundComponent -->
<g id="node7" class="node">
<title>NotFoundComponent</title>
<polygon fill="#ffffb3" stroke="black" points="903.12,-84.8 764.88,-84.8 764.88,-48.8 903.12,-48.8 903.12,-84.8"/>
<text text-anchor="middle" x="834" y="-62.6" font-family="Times,serif" font-size="14.00">NotFoundComponent</text>
</g>
<!-- NotFoundComponent&#45;&gt;AppModule -->
<g id="edge7" class="edge">
<title>NotFoundComponent&#45;&gt;AppModule</title>
<path fill="none" stroke="black" d="M884.61,-84.91C884.61,-84.91 884.61,-103.79 884.61,-103.79"/>
<polygon fill="black" stroke="black" points="881.11,-103.79 884.61,-113.79 888.11,-103.79 881.11,-103.79"/>
</g>
<!-- RegisterComponent -->
<g id="node8" class="node">
<title>RegisterComponent</title>
<polygon fill="#ffffb3" stroke="black" points="746.99,-84.8 619.01,-84.8 619.01,-48.8 746.99,-48.8 746.99,-84.8"/>
<text text-anchor="middle" x="683" y="-62.6" font-family="Times,serif" font-size="14.00">RegisterComponent</text>
</g>
<!-- RegisterComponent&#45;&gt;AppModule -->
<g id="edge8" class="edge">
<title>RegisterComponent&#45;&gt;AppModule</title>
<path fill="none" stroke="black" d="M683,-85.04C683,-100.37 683,-119.8 683,-119.8 683,-119.8 856.21,-119.8 856.21,-119.8"/>
<polygon fill="black" stroke="black" points="856.21,-123.3 866.21,-119.8 856.21,-116.3 856.21,-123.3"/>
</g>
<!-- TodoComponent -->
<g id="node9" class="node">
<title>TodoComponent</title>
<polygon fill="#ffffb3" stroke="black" points="601.38,-84.8 490.62,-84.8 490.62,-48.8 601.38,-48.8 601.38,-84.8"/>
<text text-anchor="middle" x="546" y="-62.6" font-family="Times,serif" font-size="14.00">TodoComponent</text>
</g>
<!-- TodoComponent&#45;&gt;AppModule -->
<g id="edge9" class="edge">
<title>TodoComponent&#45;&gt;AppModule</title>
<path fill="none" stroke="black" d="M546,-84.82C546,-102.17 546,-125.8 546,-125.8 546,-125.8 856.12,-125.8 856.12,-125.8"/>
<polygon fill="black" stroke="black" points="856.12,-129.3 866.12,-125.8 856.12,-122.3 856.12,-129.3"/>
</g>
<!-- TodosComponent -->
<g id="node10" class="node">
<title>TodosComponent</title>
<polygon fill="#ffffb3" stroke="black" points="472.33,-84.8 355.67,-84.8 355.67,-48.8 472.33,-48.8 472.33,-84.8"/>
<text text-anchor="middle" x="414" y="-62.6" font-family="Times,serif" font-size="14.00">TodosComponent</text>
</g>
<!-- TodosComponent&#45;&gt;AppModule -->
<g id="edge10" class="edge">
<title>TodosComponent&#45;&gt;AppModule</title>
<path fill="none" stroke="black" d="M414,-84.91C414,-104.14 414,-131.8 414,-131.8 414,-131.8 856.31,-131.8 856.31,-131.8"/>
<polygon fill="black" stroke="black" points="856.31,-135.3 866.31,-131.8 856.31,-128.3 856.31,-135.3"/>
</g>
<!-- AppComponent  -->
<g id="node13" class="node">
<title>AppComponent </title>
<polygon fill="#80b1d3" stroke="black" points="962.44,-214.8 853.56,-214.8 853.56,-178.8 962.44,-178.8 962.44,-214.8"/>
<text text-anchor="middle" x="908" y="-192.6" font-family="Times,serif" font-size="14.00">AppComponent </text>
</g>
<!-- AppModule&#45;&gt;AppComponent  -->
<g id="edge12" class="edge">
<title>AppModule&#45;&gt;AppComponent </title>
<path fill="none" stroke="black" stroke-dasharray="1,5" d="M908,-149.91C908,-149.91 908,-168.79 908,-168.79"/>
<polygon fill="black" stroke="black" points="904.5,-168.79 908,-178.79 911.5,-168.79 904.5,-168.79"/>
</g>
<!-- AppRoutingModule -->
<g id="node12" class="node">
<title>AppRoutingModule</title>
<polygon fill="#8dd3c7" stroke="black" points="332.28,-84.8 329.28,-88.8 308.28,-88.8 305.28,-84.8 203.72,-84.8 203.72,-48.8 332.28,-48.8 332.28,-84.8"/>
<text text-anchor="middle" x="268" y="-62.6" font-family="Times,serif" font-size="14.00">AppRoutingModule</text>
</g>
<!-- AppRoutingModule&#45;&gt;AppModule -->
<g id="edge11" class="edge">
<title>AppRoutingModule&#45;&gt;AppModule</title>
<path fill="none" stroke="black" d="M268,-85.08C268,-106.12 268,-137.8 268,-137.8 268,-137.8 856.01,-137.8 856.01,-137.8"/>
<polygon fill="black" stroke="black" points="856.01,-141.3 866.01,-137.8 856.01,-134.3 856.01,-141.3"/>
</g>
<!-- TokenInterceptor -->
<g id="node14" class="node">
<title>TokenInterceptor</title>
<ellipse fill="#fdb462" stroke="black" cx="102" cy="-66.8" rx="78.13" ry="18"/>
<text text-anchor="middle" x="102" y="-62.6" font-family="Times,serif" font-size="14.00">TokenInterceptor</text>
</g>
<!-- TokenInterceptor&#45;&gt;AppModule -->
<g id="edge13" class="edge">
<title>TokenInterceptor&#45;&gt;AppModule</title>
<path fill="none" stroke="black" d="M102,-85.05C102,-107.82 102,-143.8 102,-143.8 102,-143.8 856.08,-143.8 856.08,-143.8"/>
<polygon fill="black" stroke="black" points="856.08,-147.3 866.08,-143.8 856.08,-140.3 856.08,-147.3"/>
</g>
</g>
</svg>
